<?xml version="1.0" encoding="utf-8"?>
<!-- Generator: Adobe Illustrator 21.1.0, SVG Export Plug-In . SVG Version: 6.00 Build 0)  -->
<svg version="1.1" id="Capa_1" xmlns="http://www.w3.org/2000/svg" xmlns:xlink="http://www.w3.org/1999/xlink" x="0px" y="0px"
	 viewBox="0 0 189.5 189.5" style="enable-background:new 0 0 189.5 189.5;" xml:space="preserve">
<style type="text/css">
	.st0{fill:#D0D0D0;}
</style>
<g>
	<path class="st0" d="M152.5,179.5c-1.5,0-2.9-0.4-4.2-1.3l-47.6-32.3l-25.6,18.4c-2,1.4-4.6,1.8-6.9,1c-2.3-0.8-4.1-2.8-4.7-5.1
		l-12.8-48.6L4.8,93.9C1.9,92.8,0,90.1,0,87c0-3.1,1.9-5.9,4.7-7L179,10.6c0.8-0.3,1.6-0.5,2.5-0.6c0.3,0,0.6,0,0.9,0
		c1.7,0.1,3.5,0.8,4.8,2.1c0.1,0.1,0.3,0.3,0.4,0.4c1.1,1.3,1.7,2.8,1.8,4.4c0,0.4,0,0.8,0,1.2c0,0.3-0.1,0.6-0.1,0.9l-29.4,154.4
		c-0.5,2.5-2.2,4.6-4.5,5.5C154.5,179.3,153.5,179.5,152.5,179.5z M104.9,130.6l42.4,28.8l22.9-120.1l-82.7,79.6l17.2,11.6
		C104.7,130.5,104.8,130.5,104.9,130.6z M69.5,124.2l5.7,21.5l12.2-8.8l-16-10.9C70.7,125.5,70,124.9,69.5,124.2z M28.1,86.8
		l31.5,12c2.3,0.9,4,2.8,4.6,5.1l4,15.1c0.2-1.7,1-3.4,2.3-4.6l78.8-75.8L28.1,86.8z"/>
</g>
</svg>
